<svg width="12" height="7" viewBox="0 0 12 7" fill="none" xmlns="http://www.w3.org/2000/svg">
<path fill-rule="evenodd" clip-rule="evenodd" d="M6.3538 6.85287C6.26005 6.9465 6.13297 6.99909 6.00047 6.99909C5.86797 6.99909 5.74088 6.9465 5.64713 6.85287L0.647134 1.85287C0.558814 1.75808 0.510732 1.63272 0.513017 1.50318C0.515303 1.37365 0.567777 1.25006 0.659386 1.15845C0.750995 1.06684 0.874585 1.01437 1.00412 1.01208C1.13365 1.0098 1.25902 1.05788 1.3538 1.1462L6.00047 5.79287L10.6471 1.1462C10.6929 1.09707 10.7481 1.05767 10.8094 1.03035C10.8708 1.00302 10.937 0.988323 11.0041 0.987138C11.0713 0.985954 11.1379 0.998303 11.2002 1.02345C11.2625 1.0486 11.319 1.08603 11.3665 1.13351C11.414 1.18099 11.4514 1.23754 11.4766 1.2998C11.5017 1.36206 11.514 1.42875 11.5129 1.49588C11.5117 1.56302 11.497 1.62923 11.4697 1.69056C11.4423 1.75189 11.4029 1.80709 11.3538 1.85287L6.3538 6.85287Z" fill="#212529"/>
</svg>
